<?xml version="1.0" encoding="UTF-8" standalone="no"?>
<!-- Uploaded to: SVG Repo, www.svgrepo.com, Generator: SVG Repo Mixer Tools -->

<svg
   fill="#000000"
   width="80"
   height="80"
   viewBox="-2.5 0 80 80"
   class="cf-icon-svg"
   version="1.1"
   id="svg1954"
   sodipodi:docname="github.svg"
   inkscape:version="1.2.1 (9c6d41e410, 2022-07-14)"
   xmlns:inkscape="http://www.inkscape.org/namespaces/inkscape"
   xmlns:sodipodi="http://sodipodi.sourceforge.net/DTD/sodipodi-0.dtd"
   xmlns="http://www.w3.org/2000/svg"
   xmlns:svg="http://www.w3.org/2000/svg">
  <defs
     id="defs1958" />
  <sodipodi:namedview
     id="namedview1956"
     pagecolor="#ffffff"
     bordercolor="#000000"
     borderopacity="0.25"
     inkscape:showpageshadow="2"
     inkscape:pageopacity="0.0"
     inkscape:pagecheckerboard="true"
     inkscape:deskcolor="#d1d1d1"
     showgrid="false"
     inkscape:zoom="3.9951533"
     inkscape:cx="65.704612"
     inkscape:cy="62.826125"
     inkscape:window-width="1366"
     inkscape:window-height="745"
     inkscape:window-x="-8"
     inkscape:window-y="-8"
     inkscape:window-maximized="1"
     inkscape:current-layer="svg1954" />
  <path
     d="M 50.994549,78.263706 A 24.680573,24.680573 0 0 1 39.968807,80 23.497483,23.497483 0 0 1 28.975928,78.263706 4.0860425,4.0860425 0 0 1 27.458725,75.048549 c 0,-1.204999 -0.04382,-4.370861 -0.06573,-8.58288 C 13.34928,69.516507 10.386078,59.695764 10.386078,59.695764 A 13.364536,13.364536 0 0 0 4.7773544,52.312406 c -4.57899676,-3.132998 0.3450679,-3.06727 0.3450679,-3.06727 a 10.60947,10.60947 0 0 1 7.7339037,5.203405 10.746401,10.746401 0 0 0 14.690035,4.190111 10.795697,10.795697 0 0 1 3.209679,-6.753473 C 19.549548,50.614453 7.7624659,46.281933 7.7624659,26.941697 A 19.531941,19.531941 0 0 1 12.954917,13.390934 18.146192,18.146192 0 0 1 13.453348,0.03735241 c 0,0 4.233929,-1.35836271 13.879399,5.17601909 a 47.800125,47.800125 0 0 1 25.277596,0 C 62.250336,-1.3210103 66.478788,0.03735241 66.478788,0.03735241 A 18.12976,18.12976 0 0 1 66.982696,13.390934 19.510032,19.510032 0 0 1 72.16967,26.941697 c 0,19.389532 -11.803514,23.661801 -23.048347,24.910619 a 12.022605,12.022605 0 0 1 3.423293,9.34422 c 0,6.747995 -0.06025,12.197878 -0.06025,13.852013 a 3.8012246,3.8012246 0 0 1 -1.489817,3.215157 z"
     id="path1952"
     style="fill:#ffffff;fill-opacity:1;stroke-width:5.47727" />
</svg>
