<?xml version="1.0" encoding="UTF-8" standalone="no"?>
<!-- Uploaded to: SVG Repo, www.svgrepo.com, Generator: SVG Repo Mixer Tools -->

<svg
   width="80"
   height="80"
   viewBox="0 0 80 80"
   fill="none"
   version="1.1"
   id="svg4"
   sodipodi:docname="instagram.svg"
   inkscape:version="1.2.1 (9c6d41e410, 2022-07-14)"
   xmlns:inkscape="http://www.inkscape.org/namespaces/inkscape"
   xmlns:sodipodi="http://sodipodi.sourceforge.net/DTD/sodipodi-0.dtd"
   xmlns="http://www.w3.org/2000/svg"
   xmlns:svg="http://www.w3.org/2000/svg">
  <defs
     id="defs8" />
  <sodipodi:namedview
     id="namedview6"
     pagecolor="#ffffff"
     bordercolor="#000000"
     borderopacity="0.25"
     inkscape:showpageshadow="2"
     inkscape:pageopacity="0.0"
     inkscape:pagecheckerboard="true"
     inkscape:deskcolor="#d1d1d1"
     showgrid="false"
     inkscape:zoom="3.9951533"
     inkscape:cx="59.947637"
     inkscape:cy="52.813993"
     inkscape:window-width="1366"
     inkscape:window-height="745"
     inkscape:window-x="-8"
     inkscape:window-y="-8"
     inkscape:window-maximized="1"
     inkscape:current-layer="svg4" />
  <path
     d="m 60.666667,18.666667 h 0.04444 M 22.222222,75.555556 h 35.555556 c 9.818222,0 17.777778,-7.959556 17.777778,-17.777778 V 22.222222 c 0,-9.8184 -7.959556,-17.7777776 -17.777778,-17.7777776 H 22.222222 c -9.8184,0 -17.7777776,7.9593776 -17.7777776,17.7777776 v 35.555556 c 0,9.818222 7.9593776,17.777778 17.7777776,17.777778 z M 56.666667,40 c 0,9.204889 -7.461778,16.666667 -16.666667,16.666667 -9.204756,0 -16.666667,-7.461778 -16.666667,-16.666667 0,-9.204756 7.461911,-16.666667 16.666667,-16.666667 9.204889,0 16.666667,7.461911 16.666667,16.666667 z"
     stroke="#000000"
     stroke-width="8.88889"
     stroke-linecap="round"
     stroke-linejoin="round"
     id="path2"
     style="stroke:#ffffff;stroke-opacity:1" />
</svg>
