<?xml version="1.0" encoding="UTF-8" standalone="no"?>
<!-- Uploaded to: SVG Repo, www.svgrepo.com, Generator: SVG Repo Mixer Tools -->

<svg
   fill="#000000"
   width="80"
   height="80"
   viewBox="0 0 80 80"
   role="img"
   version="1.1"
   id="svg323"
   sodipodi:docname="pixiv.svg"
   inkscape:version="1.2.1 (9c6d41e410, 2022-07-14)"
   xmlns:inkscape="http://www.inkscape.org/namespaces/inkscape"
   xmlns:sodipodi="http://sodipodi.sourceforge.net/DTD/sodipodi-0.dtd"
   xmlns="http://www.w3.org/2000/svg"
   xmlns:svg="http://www.w3.org/2000/svg"
   xmlns:rdf="http://www.w3.org/1999/02/22-rdf-syntax-ns#"
   xmlns:cc="http://creativecommons.org/ns#"
   xmlns:dc="http://purl.org/dc/elements/1.1/">
  <defs
     id="defs327" />
  <sodipodi:namedview
     id="namedview325"
     pagecolor="#ffffff"
     bordercolor="#000000"
     borderopacity="0.25"
     inkscape:showpageshadow="2"
     inkscape:pageopacity="0.0"
     inkscape:pagecheckerboard="true"
     inkscape:deskcolor="#d1d1d1"
     showgrid="false"
     inkscape:zoom="3.9951533"
     inkscape:cx="43.42762"
     inkscape:cy="47.057018"
     inkscape:window-width="1366"
     inkscape:window-height="745"
     inkscape:window-x="-8"
     inkscape:window-y="-8"
     inkscape:window-maximized="1"
     inkscape:current-layer="svg323" />
  <title
     id="title319">pixiv icon</title>
  <metadata
     id="metadata446">
    <rdf:RDF>
      <cc:Work
         rdf:about="">
        <dc:title>pixiv icon</dc:title>
      </cc:Work>
    </rdf:RDF>
  </metadata>
  <path
     d="m 44.776012,3.8596726 c 10.22269,0 19.020485,3.1685184 25.305963,8.6571794 6.338766,5.481729 9.962417,13.461981 9.918025,21.842154 0.02344,8.68999 -4.124699,16.292559 -10.578914,21.387499 -6.444842,5.118376 -15.116083,7.954107 -24.645074,7.954107 -10.846082,0 -20.904722,-3.946587 -20.904722,-3.946587 v 12.739694 c 1.860801,0.54371 4.912141,1.710812 2.976345,3.651296 H 12.176832 c -1.921735,-1.921735 0.89056,-3.046653 3.018529,-3.651296 V 18.478917 c -4.935577,3.796597 -7.4666415,7.077607 -8.7556098,9.519616 1.4998904,4.780901 -1.3311527,4.541856 -1.3311527,4.541856 L -4.0313746e-4,24.431607 c 0,0 18.12992513746,-20.5766216 44.77641513746,-20.5766216 z m -0.89056,4.5512299 C 37.215627,8.396841 28.961543,10.627928 23.87129,14.241726 V 54.76689 c 4.630911,2.282645 11.642899,3.899714 19.96729,3.899714 h 0.04687 c 7.480703,0 13.967729,-2.779484 18.420529,-7.185412 C 66.768155,47.037767 69.271097,41.249127 69.29922,34.218391 69.275784,27.000169 66.936892,20.794372 62.643456,16.125964 58.340645,11.476303 51.98486,8.4155896 43.885452,8.4109025 Z"
     id="path1111"
     style="fill:#ffffff;fill-opacity:1;stroke:none;stroke-width:4.68716" />
</svg>
