<?xml version="1.0" encoding="UTF-8" standalone="no"?>
<!-- Uploaded to: SVG Repo, www.svgrepo.com, Generator: SVG Repo Mixer Tools -->

<svg
   fill="#000000"
   height="80"
   width="80"
   version="1.1"
   id="Layer_1"
   viewBox="-271 296.6 80 80"
   xml:space="preserve"
   sodipodi:docname="twitter.svg"
   inkscape:version="1.2.1 (9c6d41e410, 2022-07-14)"
   xmlns:inkscape="http://www.inkscape.org/namespaces/inkscape"
   xmlns:sodipodi="http://sodipodi.sourceforge.net/DTD/sodipodi-0.dtd"
   xmlns="http://www.w3.org/2000/svg"
   xmlns:svg="http://www.w3.org/2000/svg"><defs
   id="defs1963" /><sodipodi:namedview
   id="namedview1961"
   pagecolor="#ffffff"
   bordercolor="#000000"
   borderopacity="0.25"
   inkscape:showpageshadow="2"
   inkscape:pageopacity="0.0"
   inkscape:pagecheckerboard="true"
   inkscape:deskcolor="#d1d1d1"
   showgrid="false"
   inkscape:zoom="3.9951533"
   inkscape:cx="56.443391"
   inkscape:cy="70.585527"
   inkscape:window-width="1366"
   inkscape:window-height="745"
   inkscape:window-x="-8"
   inkscape:window-y="-8"
   inkscape:window-maximized="1"
   inkscape:current-layer="Layer_1" />
<path
   d="m -191,311.76381 c -2.93292,1.31045 -6.11544,2.18408 -9.42278,2.5897 3.40094,-2.02808 5.99064,-5.24181 7.20749,-9.07956 -3.18253,1.87207 -6.67707,3.24493 -10.42122,3.99376 -2.99532,-3.18253 -7.26989,-5.17941 -11.98127,-5.17941 -9.04837,0 -16.41186,7.36349 -16.41186,16.41186 0,1.27925 0.1248,2.5273 0.43682,3.74415 -13.63495,-0.68643 -25.74103,-7.20749 -33.82216,-17.16069 -1.40405,2.4337 -2.21529,5.24181 -2.21529,8.26833 0,5.67863 2.90172,10.70203 7.3011,13.66615 -2.68331,-0.0936 -5.21061,-0.84244 -7.4259,-2.05929 v 0.18721 c 0,7.95632 5.64743,14.60219 13.16693,16.09985 -1.37286,0.37441 -2.83932,0.59282 -4.33698,0.59282 -1.06084,0 -2.09048,-0.0936 -3.08892,-0.28081 2.09048,6.52106 8.14353,11.26365 15.31982,11.38845 -5.61624,4.39938 -12.69892,7.02028 -20.37442,7.02028 -1.31046,0 -2.6209,-0.0624 -3.93136,-0.2184 7.26989,4.64899 15.88144,7.36349 25.14821,7.36349 30.2028,0 46.70826,-25.0234 46.70826,-46.70826 0,-0.71764 0,-1.43527 -0.0312,-2.12169 3.21373,-2.3401 5.99065,-5.21061 8.17473,-8.51794"
   id="path1958"
   style="fill:#ffffff;fill-opacity:1;stroke-width:0.312012" />
</svg>
